<svg width="334" height="356" viewBox="0 0 334 356" fill="none" xmlns="http://www.w3.org/2000/svg">
<path opacity="0.6" d="M46.1992 286.467H52.9375V288H44.3145V273.781H46.1992V286.467ZM54.3145 282.619C54.3145 281.584 54.5163 280.653 54.9199 279.826C55.3301 278.999 55.8965 278.361 56.6191 277.912C57.3483 277.463 58.1784 277.238 59.1094 277.238C60.5482 277.238 61.7103 277.736 62.5957 278.732C63.4876 279.729 63.9336 281.053 63.9336 282.707V282.834C63.9336 283.863 63.735 284.787 63.3379 285.607C62.9473 286.421 62.3841 287.056 61.6484 287.512C60.9193 287.967 60.0794 288.195 59.1289 288.195C57.6966 288.195 56.5345 287.697 55.6426 286.701C54.7572 285.705 54.3145 284.387 54.3145 282.746V282.619ZM56.1309 282.834C56.1309 284.006 56.401 284.947 56.9414 285.656C57.4883 286.366 58.2174 286.721 59.1289 286.721C60.0469 286.721 60.776 286.363 61.3164 285.646C61.8568 284.924 62.127 283.915 62.127 282.619C62.127 281.46 61.8503 280.523 61.2969 279.807C60.75 279.084 60.0208 278.723 59.1094 278.723C58.2174 278.723 57.498 279.077 56.9512 279.787C56.4043 280.497 56.1309 281.512 56.1309 282.834ZM71.3066 279.055C71.0332 279.009 70.737 278.986 70.418 278.986C69.2331 278.986 68.429 279.491 68.0059 280.5V288H66.1992V277.434H67.957L67.9863 278.654C68.5788 277.71 69.4186 277.238 70.5059 277.238C70.8574 277.238 71.1243 277.284 71.3066 277.375V279.055ZM77.166 288.195C75.7337 288.195 74.5684 287.727 73.6699 286.789C72.7715 285.845 72.3223 284.585 72.3223 283.01V282.678C72.3223 281.63 72.5208 280.695 72.918 279.875C73.3216 279.048 73.8815 278.404 74.5977 277.941C75.3203 277.473 76.1016 277.238 76.9414 277.238C78.3151 277.238 79.3828 277.691 80.1445 278.596C80.9062 279.501 81.2871 280.796 81.2871 282.482V283.234H74.1289C74.1549 284.276 74.4577 285.119 75.0371 285.764C75.623 286.402 76.3652 286.721 77.2637 286.721C77.9017 286.721 78.4421 286.59 78.8848 286.33C79.3275 286.07 79.7148 285.725 80.0469 285.295L81.1504 286.154C80.265 287.515 78.9368 288.195 77.166 288.195ZM76.9414 278.723C76.2122 278.723 75.6003 278.99 75.1055 279.523C74.6107 280.051 74.3047 280.793 74.1875 281.75H79.4805V281.613C79.4284 280.695 79.181 279.986 78.7383 279.484C78.2956 278.977 77.6966 278.723 76.9414 278.723ZM85.0859 277.434L85.1348 278.605C85.9095 277.694 86.9544 277.238 88.2695 277.238C89.7474 277.238 90.7533 277.805 91.2871 278.938C91.6387 278.43 92.0944 278.02 92.6543 277.707C93.2207 277.395 93.888 277.238 94.6562 277.238C96.974 277.238 98.1523 278.465 98.1914 280.92V288H96.3848V281.027C96.3848 280.272 96.2122 279.709 95.8672 279.338C95.5221 278.96 94.9427 278.771 94.1289 278.771C93.4583 278.771 92.9017 278.973 92.459 279.377C92.0163 279.774 91.7591 280.311 91.6875 280.988V288H89.8711V281.076C89.8711 279.54 89.1191 278.771 87.6152 278.771C86.4303 278.771 85.6198 279.276 85.1836 280.285V288H83.377V277.434H85.0859ZM107.85 288H106.043V277.434H107.85V288ZM105.896 274.631C105.896 274.338 105.984 274.09 106.16 273.889C106.342 273.687 106.609 273.586 106.961 273.586C107.312 273.586 107.579 273.687 107.762 273.889C107.944 274.09 108.035 274.338 108.035 274.631C108.035 274.924 107.944 275.168 107.762 275.363C107.579 275.559 107.312 275.656 106.961 275.656C106.609 275.656 106.342 275.559 106.16 275.363C105.984 275.168 105.896 274.924 105.896 274.631ZM119.676 282.834C119.676 284.442 119.308 285.738 118.572 286.721C117.837 287.704 116.84 288.195 115.584 288.195C114.301 288.195 113.292 287.788 112.557 286.975V292.062H110.75V277.434H112.4L112.488 278.605C113.224 277.694 114.246 277.238 115.555 277.238C116.824 277.238 117.827 277.717 118.562 278.674C119.305 279.631 119.676 280.962 119.676 282.668V282.834ZM117.869 282.629C117.869 281.438 117.615 280.497 117.107 279.807C116.6 279.117 115.903 278.771 115.018 278.771C113.924 278.771 113.104 279.257 112.557 280.227V285.275C113.097 286.239 113.924 286.721 115.037 286.721C115.903 286.721 116.59 286.379 117.098 285.695C117.612 285.005 117.869 283.983 117.869 282.629ZM128.133 285.197C128.133 284.709 127.947 284.331 127.576 284.064C127.212 283.791 126.57 283.557 125.652 283.361C124.741 283.166 124.015 282.932 123.475 282.658C122.941 282.385 122.544 282.059 122.283 281.682C122.029 281.304 121.902 280.855 121.902 280.334C121.902 279.468 122.267 278.736 122.996 278.137C123.732 277.538 124.669 277.238 125.809 277.238C127.007 277.238 127.977 277.548 128.719 278.166C129.467 278.785 129.842 279.576 129.842 280.539H128.025C128.025 280.044 127.814 279.618 127.391 279.26C126.974 278.902 126.447 278.723 125.809 278.723C125.151 278.723 124.637 278.866 124.266 279.152C123.895 279.439 123.709 279.813 123.709 280.275C123.709 280.712 123.882 281.04 124.227 281.262C124.572 281.483 125.193 281.695 126.092 281.896C126.997 282.098 127.729 282.339 128.289 282.619C128.849 282.899 129.262 283.238 129.529 283.635C129.803 284.025 129.939 284.504 129.939 285.07C129.939 286.014 129.562 286.773 128.807 287.346C128.051 287.912 127.072 288.195 125.867 288.195C125.021 288.195 124.272 288.046 123.621 287.746C122.97 287.447 122.459 287.03 122.088 286.496C121.723 285.956 121.541 285.373 121.541 284.748H123.348C123.38 285.354 123.621 285.835 124.07 286.193C124.526 286.545 125.125 286.721 125.867 286.721C126.551 286.721 127.098 286.584 127.508 286.311C127.924 286.031 128.133 285.66 128.133 285.197ZM138.816 286.955C138.113 287.782 137.081 288.195 135.721 288.195C134.594 288.195 133.735 287.87 133.143 287.219C132.557 286.561 132.26 285.591 132.254 284.309V277.434H134.061V284.26C134.061 285.861 134.712 286.662 136.014 286.662C137.394 286.662 138.312 286.148 138.768 285.119V277.434H140.574V288H138.855L138.816 286.955ZM145.027 277.434L145.076 278.605C145.851 277.694 146.896 277.238 148.211 277.238C149.689 277.238 150.695 277.805 151.229 278.938C151.58 278.43 152.036 278.02 152.596 277.707C153.162 277.395 153.829 277.238 154.598 277.238C156.915 277.238 158.094 278.465 158.133 280.92V288H156.326V281.027C156.326 280.272 156.154 279.709 155.809 279.338C155.464 278.96 154.884 278.771 154.07 278.771C153.4 278.771 152.843 278.973 152.4 279.377C151.958 279.774 151.701 280.311 151.629 280.988V288H149.812V281.076C149.812 279.54 149.061 278.771 147.557 278.771C146.372 278.771 145.561 279.276 145.125 280.285V288H143.318V277.434H145.027ZM165.389 282.629C165.389 281.008 165.773 279.706 166.541 278.723C167.309 277.733 168.315 277.238 169.559 277.238C170.796 277.238 171.775 277.661 172.498 278.508V273H174.305V288H172.645L172.557 286.867C171.834 287.753 170.828 288.195 169.539 288.195C168.315 288.195 167.316 287.694 166.541 286.691C165.773 285.689 165.389 284.38 165.389 282.766V282.629ZM167.195 282.834C167.195 284.032 167.443 284.969 167.938 285.646C168.432 286.324 169.116 286.662 169.988 286.662C171.134 286.662 171.971 286.148 172.498 285.119V280.266C171.958 279.27 171.128 278.771 170.008 278.771C169.122 278.771 168.432 279.113 167.938 279.797C167.443 280.48 167.195 281.493 167.195 282.834ZM176.639 282.619C176.639 281.584 176.84 280.653 177.244 279.826C177.654 278.999 178.221 278.361 178.943 277.912C179.673 277.463 180.503 277.238 181.434 277.238C182.872 277.238 184.035 277.736 184.92 278.732C185.812 279.729 186.258 281.053 186.258 282.707V282.834C186.258 283.863 186.059 284.787 185.662 285.607C185.271 286.421 184.708 287.056 183.973 287.512C183.243 287.967 182.404 288.195 181.453 288.195C180.021 288.195 178.859 287.697 177.967 286.701C177.081 285.705 176.639 284.387 176.639 282.746V282.619ZM178.455 282.834C178.455 284.006 178.725 284.947 179.266 285.656C179.812 286.366 180.542 286.721 181.453 286.721C182.371 286.721 183.1 286.363 183.641 285.646C184.181 284.924 184.451 283.915 184.451 282.619C184.451 281.46 184.174 280.523 183.621 279.807C183.074 279.084 182.345 278.723 181.434 278.723C180.542 278.723 179.822 279.077 179.275 279.787C178.729 280.497 178.455 281.512 178.455 282.834ZM190.486 288H188.68V273H190.486V288ZM192.908 282.619C192.908 281.584 193.11 280.653 193.514 279.826C193.924 278.999 194.49 278.361 195.213 277.912C195.942 277.463 196.772 277.238 197.703 277.238C199.142 277.238 200.304 277.736 201.189 278.732C202.081 279.729 202.527 281.053 202.527 282.707V282.834C202.527 283.863 202.329 284.787 201.932 285.607C201.541 286.421 200.978 287.056 200.242 287.512C199.513 287.967 198.673 288.195 197.723 288.195C196.29 288.195 195.128 287.697 194.236 286.701C193.351 285.705 192.908 284.387 192.908 282.746V282.619ZM194.725 282.834C194.725 284.006 194.995 284.947 195.535 285.656C196.082 286.366 196.811 286.721 197.723 286.721C198.641 286.721 199.37 286.363 199.91 285.646C200.451 284.924 200.721 283.915 200.721 282.619C200.721 281.46 200.444 280.523 199.891 279.807C199.344 279.084 198.615 278.723 197.703 278.723C196.811 278.723 196.092 279.077 195.545 279.787C194.998 280.497 194.725 281.512 194.725 282.834ZM209.9 279.055C209.627 279.009 209.331 278.986 209.012 278.986C207.827 278.986 207.023 279.491 206.6 280.5V288H204.793V277.434H206.551L206.58 278.654C207.173 277.71 208.012 277.238 209.1 277.238C209.451 277.238 209.718 277.284 209.9 277.375V279.055ZM222.684 285.197C222.684 284.709 222.498 284.331 222.127 284.064C221.762 283.791 221.121 283.557 220.203 283.361C219.292 283.166 218.566 282.932 218.025 282.658C217.492 282.385 217.094 282.059 216.834 281.682C216.58 281.304 216.453 280.855 216.453 280.334C216.453 279.468 216.818 278.736 217.547 278.137C218.283 277.538 219.22 277.238 220.359 277.238C221.557 277.238 222.527 277.548 223.27 278.166C224.018 278.785 224.393 279.576 224.393 280.539H222.576C222.576 280.044 222.365 279.618 221.941 279.26C221.525 278.902 220.997 278.723 220.359 278.723C219.702 278.723 219.188 278.866 218.816 279.152C218.445 279.439 218.26 279.813 218.26 280.275C218.26 280.712 218.432 281.04 218.777 281.262C219.122 281.483 219.744 281.695 220.643 281.896C221.548 282.098 222.28 282.339 222.84 282.619C223.4 282.899 223.813 283.238 224.08 283.635C224.354 284.025 224.49 284.504 224.49 285.07C224.49 286.014 224.113 286.773 223.357 287.346C222.602 287.912 221.622 288.195 220.418 288.195C219.572 288.195 218.823 288.046 218.172 287.746C217.521 287.447 217.01 287.03 216.639 286.496C216.274 285.956 216.092 285.373 216.092 284.748H217.898C217.931 285.354 218.172 285.835 218.621 286.193C219.077 286.545 219.676 286.721 220.418 286.721C221.102 286.721 221.648 286.584 222.059 286.311C222.475 286.031 222.684 285.66 222.684 285.197ZM228.807 288H227V277.434H228.807V288ZM226.854 274.631C226.854 274.338 226.941 274.09 227.117 273.889C227.299 273.687 227.566 273.586 227.918 273.586C228.27 273.586 228.536 273.687 228.719 273.889C228.901 274.09 228.992 274.338 228.992 274.631C228.992 274.924 228.901 275.168 228.719 275.363C228.536 275.559 228.27 275.656 227.918 275.656C227.566 275.656 227.299 275.559 227.117 275.363C226.941 275.168 226.854 274.924 226.854 274.631ZM234.158 274.875V277.434H236.131V278.83H234.158V285.383C234.158 285.806 234.246 286.125 234.422 286.34C234.598 286.548 234.897 286.652 235.32 286.652C235.529 286.652 235.815 286.613 236.18 286.535V288C235.704 288.13 235.242 288.195 234.793 288.195C233.986 288.195 233.377 287.951 232.967 287.463C232.557 286.975 232.352 286.281 232.352 285.383V278.83H230.428V277.434H232.352V274.875H234.158ZM249.734 288C249.63 287.792 249.546 287.421 249.48 286.887C248.641 287.759 247.638 288.195 246.473 288.195C245.431 288.195 244.575 287.902 243.904 287.316C243.24 286.724 242.908 285.975 242.908 285.07C242.908 283.97 243.325 283.117 244.158 282.512C244.998 281.9 246.176 281.594 247.693 281.594H249.451V280.764C249.451 280.132 249.262 279.631 248.885 279.26C248.507 278.882 247.951 278.693 247.215 278.693C246.57 278.693 246.03 278.856 245.594 279.182C245.158 279.507 244.939 279.901 244.939 280.363H243.123C243.123 279.836 243.309 279.328 243.68 278.84C244.057 278.345 244.565 277.954 245.203 277.668C245.848 277.382 246.554 277.238 247.322 277.238C248.54 277.238 249.493 277.544 250.184 278.156C250.874 278.762 251.232 279.598 251.258 280.666V285.529C251.258 286.499 251.382 287.271 251.629 287.844V288H249.734ZM246.736 286.623C247.303 286.623 247.84 286.477 248.348 286.184C248.855 285.891 249.223 285.51 249.451 285.041V282.873H248.035C245.822 282.873 244.715 283.521 244.715 284.816C244.715 285.383 244.904 285.826 245.281 286.145C245.659 286.464 246.144 286.623 246.736 286.623ZM255.789 277.434L255.838 278.605C256.613 277.694 257.658 277.238 258.973 277.238C260.451 277.238 261.456 277.805 261.99 278.938C262.342 278.43 262.798 278.02 263.357 277.707C263.924 277.395 264.591 277.238 265.359 277.238C267.677 277.238 268.855 278.465 268.895 280.92V288H267.088V281.027C267.088 280.272 266.915 279.709 266.57 279.338C266.225 278.96 265.646 278.771 264.832 278.771C264.161 278.771 263.605 278.973 263.162 279.377C262.719 279.774 262.462 280.311 262.391 280.988V288H260.574V281.076C260.574 279.54 259.822 278.771 258.318 278.771C257.133 278.771 256.323 279.276 255.887 280.285V288H254.08V277.434H255.789ZM276.014 288.195C274.581 288.195 273.416 287.727 272.518 286.789C271.619 285.845 271.17 284.585 271.17 283.01V282.678C271.17 281.63 271.368 280.695 271.766 279.875C272.169 279.048 272.729 278.404 273.445 277.941C274.168 277.473 274.949 277.238 275.789 277.238C277.163 277.238 278.23 277.691 278.992 278.596C279.754 279.501 280.135 280.796 280.135 282.482V283.234H272.977C273.003 284.276 273.305 285.119 273.885 285.764C274.471 286.402 275.213 286.721 276.111 286.721C276.749 286.721 277.29 286.59 277.732 286.33C278.175 286.07 278.562 285.725 278.895 285.295L279.998 286.154C279.113 287.515 277.785 288.195 276.014 288.195ZM275.789 278.723C275.06 278.723 274.448 278.99 273.953 279.523C273.458 280.051 273.152 280.793 273.035 281.75H278.328V281.613C278.276 280.695 278.029 279.986 277.586 279.484C277.143 278.977 276.544 278.723 275.789 278.723ZM284.686 274.875V277.434H286.658V278.83H284.686V285.383C284.686 285.806 284.773 286.125 284.949 286.34C285.125 286.548 285.424 286.652 285.848 286.652C286.056 286.652 286.342 286.613 286.707 286.535V288C286.232 288.13 285.77 288.195 285.32 288.195C284.513 288.195 283.904 287.951 283.494 287.463C283.084 286.975 282.879 286.281 282.879 285.383V278.83H280.955V277.434H282.879V274.875H284.686ZM288.719 290.832L287.693 290.129C288.305 289.276 288.624 288.397 288.65 287.492V285.861H290.418V287.277C290.418 287.935 290.255 288.592 289.93 289.25C289.611 289.908 289.207 290.435 288.719 290.832ZM19.7734 316.721C20.418 316.721 20.9811 316.525 21.4629 316.135C21.9447 315.744 22.2116 315.256 22.2637 314.67H23.9727C23.9401 315.275 23.7318 315.852 23.3477 316.398C22.9635 316.945 22.4492 317.382 21.8047 317.707C21.1667 318.033 20.4896 318.195 19.7734 318.195C18.3346 318.195 17.1888 317.717 16.3359 316.76C15.4896 315.796 15.0664 314.481 15.0664 312.814V312.512C15.0664 311.483 15.2552 310.568 15.6328 309.768C16.0104 308.967 16.5508 308.345 17.2539 307.902C17.9635 307.46 18.8001 307.238 19.7637 307.238C20.9486 307.238 21.9316 307.593 22.7129 308.303C23.5007 309.012 23.9206 309.934 23.9727 311.066H22.2637C22.2116 310.383 21.9512 309.823 21.4824 309.387C21.0202 308.944 20.4473 308.723 19.7637 308.723C18.8457 308.723 18.1328 309.055 17.625 309.719C17.1237 310.376 16.873 311.33 16.873 312.58V312.922C16.873 314.139 17.1237 315.077 17.625 315.734C18.1263 316.392 18.8424 316.721 19.7734 316.721ZM25.5254 312.619C25.5254 311.584 25.7272 310.653 26.1309 309.826C26.541 308.999 27.1074 308.361 27.8301 307.912C28.5592 307.463 29.3893 307.238 30.3203 307.238C31.7591 307.238 32.9212 307.736 33.8066 308.732C34.6986 309.729 35.1445 311.053 35.1445 312.707V312.834C35.1445 313.863 34.946 314.787 34.5488 315.607C34.1582 316.421 33.5951 317.056 32.8594 317.512C32.1302 317.967 31.2904 318.195 30.3398 318.195C28.9076 318.195 27.7454 317.697 26.8535 316.701C25.9681 315.705 25.5254 314.387 25.5254 312.746V312.619ZM27.3418 312.834C27.3418 314.006 27.612 314.947 28.1523 315.656C28.6992 316.366 29.4284 316.721 30.3398 316.721C31.2578 316.721 31.987 316.363 32.5273 315.646C33.0677 314.924 33.3379 313.915 33.3379 312.619C33.3379 311.46 33.0612 310.523 32.5078 309.807C31.9609 309.084 31.2318 308.723 30.3203 308.723C29.4284 308.723 28.709 309.077 28.1621 309.787C27.6152 310.497 27.3418 311.512 27.3418 312.834ZM39.1191 307.434L39.1777 308.762C39.985 307.746 41.0397 307.238 42.3418 307.238C44.5749 307.238 45.7012 308.498 45.7207 311.018V318H43.9141V311.008C43.9076 310.246 43.7318 309.683 43.3867 309.318C43.0482 308.954 42.5176 308.771 41.7949 308.771C41.209 308.771 40.6947 308.928 40.252 309.24C39.8092 309.553 39.4642 309.963 39.2168 310.471V318H37.4102V307.434H39.1191ZM54.5977 315.197C54.5977 314.709 54.4121 314.331 54.041 314.064C53.6764 313.791 53.0352 313.557 52.1172 313.361C51.2057 313.166 50.4798 312.932 49.9395 312.658C49.4056 312.385 49.0085 312.059 48.748 311.682C48.4941 311.304 48.3672 310.855 48.3672 310.334C48.3672 309.468 48.7318 308.736 49.4609 308.137C50.1966 307.538 51.1341 307.238 52.2734 307.238C53.4714 307.238 54.4414 307.548 55.1836 308.166C55.9323 308.785 56.3066 309.576 56.3066 310.539H54.4902C54.4902 310.044 54.2786 309.618 53.8555 309.26C53.4388 308.902 52.9115 308.723 52.2734 308.723C51.6159 308.723 51.1016 308.866 50.7305 309.152C50.3594 309.439 50.1738 309.813 50.1738 310.275C50.1738 310.712 50.3464 311.04 50.6914 311.262C51.0365 311.483 51.6582 311.695 52.5566 311.896C53.4616 312.098 54.194 312.339 54.7539 312.619C55.3138 312.899 55.7272 313.238 55.9941 313.635C56.2676 314.025 56.4043 314.504 56.4043 315.07C56.4043 316.014 56.0267 316.773 55.2715 317.346C54.5163 317.912 53.5365 318.195 52.332 318.195C51.4857 318.195 50.737 318.046 50.0859 317.746C49.4349 317.447 48.9238 317.03 48.5527 316.496C48.1882 315.956 48.0059 315.373 48.0059 314.748H49.8125C49.8451 315.354 50.0859 315.835 50.5352 316.193C50.9909 316.545 51.5898 316.721 52.332 316.721C53.0156 316.721 53.5625 316.584 53.9727 316.311C54.3893 316.031 54.5977 315.66 54.5977 315.197ZM63.1426 318.195C61.7103 318.195 60.5449 317.727 59.6465 316.789C58.748 315.845 58.2988 314.585 58.2988 313.01V312.678C58.2988 311.63 58.4974 310.695 58.8945 309.875C59.2982 309.048 59.8581 308.404 60.5742 307.941C61.2969 307.473 62.0781 307.238 62.918 307.238C64.2917 307.238 65.3594 307.691 66.1211 308.596C66.8828 309.501 67.2637 310.796 67.2637 312.482V313.234H60.1055C60.1315 314.276 60.4342 315.119 61.0137 315.764C61.5996 316.402 62.3418 316.721 63.2402 316.721C63.8783 316.721 64.4186 316.59 64.8613 316.33C65.304 316.07 65.6914 315.725 66.0234 315.295L67.127 316.154C66.2415 317.515 64.9134 318.195 63.1426 318.195ZM62.918 308.723C62.1888 308.723 61.5768 308.99 61.082 309.523C60.5872 310.051 60.2812 310.793 60.1641 311.75H65.457V311.613C65.4049 310.695 65.1576 309.986 64.7148 309.484C64.2721 308.977 63.6732 308.723 62.918 308.723ZM73.6016 316.721C74.2461 316.721 74.8092 316.525 75.291 316.135C75.7728 315.744 76.0397 315.256 76.0918 314.67H77.8008C77.7682 315.275 77.5599 315.852 77.1758 316.398C76.7917 316.945 76.2773 317.382 75.6328 317.707C74.9948 318.033 74.3177 318.195 73.6016 318.195C72.1628 318.195 71.0169 317.717 70.1641 316.76C69.3177 315.796 68.8945 314.481 68.8945 312.814V312.512C68.8945 311.483 69.0833 310.568 69.4609 309.768C69.8385 308.967 70.3789 308.345 71.082 307.902C71.7917 307.46 72.6283 307.238 73.5918 307.238C74.7767 307.238 75.7598 307.593 76.541 308.303C77.3288 309.012 77.7487 309.934 77.8008 311.066H76.0918C76.0397 310.383 75.7793 309.823 75.3105 309.387C74.8483 308.944 74.2754 308.723 73.5918 308.723C72.6738 308.723 71.9609 309.055 71.4531 309.719C70.9518 310.376 70.7012 311.33 70.7012 312.58V312.922C70.7012 314.139 70.9518 315.077 71.4531 315.734C71.9544 316.392 72.6706 316.721 73.6016 316.721ZM82.2832 304.875V307.434H84.2559V308.83H82.2832V315.383C82.2832 315.806 82.3711 316.125 82.5469 316.34C82.7227 316.548 83.0221 316.652 83.4453 316.652C83.6536 316.652 83.9401 316.613 84.3047 316.535V318C83.8294 318.13 83.3672 318.195 82.918 318.195C82.1107 318.195 81.502 317.951 81.0918 317.463C80.6816 316.975 80.4766 316.281 80.4766 315.383V308.83H78.5527V307.434H80.4766V304.875H82.2832ZM90.7598 318.195C89.3275 318.195 88.1621 317.727 87.2637 316.789C86.3652 315.845 85.916 314.585 85.916 313.01V312.678C85.916 311.63 86.1146 310.695 86.5117 309.875C86.9154 309.048 87.4753 308.404 88.1914 307.941C88.9141 307.473 89.6953 307.238 90.5352 307.238C91.9089 307.238 92.9766 307.691 93.7383 308.596C94.5 309.501 94.8809 310.796 94.8809 312.482V313.234H87.7227C87.7487 314.276 88.0514 315.119 88.6309 315.764C89.2168 316.402 89.959 316.721 90.8574 316.721C91.4954 316.721 92.0358 316.59 92.4785 316.33C92.9212 316.07 93.3086 315.725 93.6406 315.295L94.7441 316.154C93.8587 317.515 92.5306 318.195 90.7598 318.195ZM90.5352 308.723C89.806 308.723 89.194 308.99 88.6992 309.523C88.2044 310.051 87.8984 310.793 87.7812 311.75H93.0742V311.613C93.0221 310.695 92.7747 309.986 92.332 309.484C91.8893 308.977 91.2904 308.723 90.5352 308.723ZM99.4316 304.875V307.434H101.404V308.83H99.4316V315.383C99.4316 315.806 99.5195 316.125 99.6953 316.34C99.8711 316.548 100.171 316.652 100.594 316.652C100.802 316.652 101.089 316.613 101.453 316.535V318C100.978 318.13 100.516 318.195 100.066 318.195C99.2591 318.195 98.6504 317.951 98.2402 317.463C97.8301 316.975 97.625 316.281 97.625 315.383V308.83H95.7012V307.434H97.625V304.875H99.4316ZM110.047 316.955C109.344 317.782 108.312 318.195 106.951 318.195C105.825 318.195 104.965 317.87 104.373 317.219C103.787 316.561 103.491 315.591 103.484 314.309V307.434H105.291V314.26C105.291 315.861 105.942 316.662 107.244 316.662C108.624 316.662 109.542 316.148 109.998 315.119V307.434H111.805V318H110.086L110.047 316.955ZM119.666 309.055C119.393 309.009 119.096 308.986 118.777 308.986C117.592 308.986 116.788 309.491 116.365 310.5V318H114.559V307.434H116.316L116.346 308.654C116.938 307.71 117.778 307.238 118.865 307.238C119.217 307.238 119.484 307.284 119.666 307.375V309.055ZM132.82 318C132.716 317.792 132.632 317.421 132.566 316.887C131.727 317.759 130.724 318.195 129.559 318.195C128.517 318.195 127.661 317.902 126.99 317.316C126.326 316.724 125.994 315.975 125.994 315.07C125.994 313.97 126.411 313.117 127.244 312.512C128.084 311.9 129.262 311.594 130.779 311.594H132.537V310.764C132.537 310.132 132.348 309.631 131.971 309.26C131.593 308.882 131.036 308.693 130.301 308.693C129.656 308.693 129.116 308.856 128.68 309.182C128.243 309.507 128.025 309.901 128.025 310.363H126.209C126.209 309.836 126.395 309.328 126.766 308.84C127.143 308.345 127.651 307.954 128.289 307.668C128.934 307.382 129.64 307.238 130.408 307.238C131.626 307.238 132.579 307.544 133.27 308.156C133.96 308.762 134.318 309.598 134.344 310.666V315.529C134.344 316.499 134.467 317.271 134.715 317.844V318H132.82ZM129.822 316.623C130.389 316.623 130.926 316.477 131.434 316.184C131.941 315.891 132.309 315.51 132.537 315.041V312.873H131.121C128.908 312.873 127.801 313.521 127.801 314.816C127.801 315.383 127.99 315.826 128.367 316.145C128.745 316.464 129.23 316.623 129.822 316.623ZM136.736 312.629C136.736 311.008 137.12 309.706 137.889 308.723C138.657 307.733 139.663 307.238 140.906 307.238C142.143 307.238 143.123 307.661 143.846 308.508V303H145.652V318H143.992L143.904 316.867C143.182 317.753 142.176 318.195 140.887 318.195C139.663 318.195 138.663 317.694 137.889 316.691C137.12 315.689 136.736 314.38 136.736 312.766V312.629ZM138.543 312.834C138.543 314.032 138.79 314.969 139.285 315.646C139.78 316.324 140.464 316.662 141.336 316.662C142.482 316.662 143.318 316.148 143.846 315.119V310.266C143.305 309.27 142.475 308.771 141.355 308.771C140.47 308.771 139.78 309.113 139.285 309.797C138.79 310.48 138.543 311.493 138.543 312.834ZM150.428 318H148.621V307.434H150.428V318ZM148.475 304.631C148.475 304.338 148.562 304.09 148.738 303.889C148.921 303.687 149.188 303.586 149.539 303.586C149.891 303.586 150.158 303.687 150.34 303.889C150.522 304.09 150.613 304.338 150.613 304.631C150.613 304.924 150.522 305.168 150.34 305.363C150.158 305.559 149.891 305.656 149.539 305.656C149.188 305.656 148.921 305.559 148.738 305.363C148.562 305.168 148.475 304.924 148.475 304.631ZM162.254 312.834C162.254 314.442 161.886 315.738 161.15 316.721C160.415 317.704 159.419 318.195 158.162 318.195C156.88 318.195 155.87 317.788 155.135 316.975V322.062H153.328V307.434H154.979L155.066 308.605C155.802 307.694 156.824 307.238 158.133 307.238C159.402 307.238 160.405 307.717 161.141 308.674C161.883 309.631 162.254 310.962 162.254 312.668V312.834ZM160.447 312.629C160.447 311.438 160.193 310.497 159.686 309.807C159.178 309.117 158.481 308.771 157.596 308.771C156.502 308.771 155.682 309.257 155.135 310.227V315.275C155.675 316.239 156.502 316.721 157.615 316.721C158.481 316.721 159.168 316.379 159.676 315.695C160.19 315.005 160.447 313.983 160.447 312.629ZM166.521 318H164.715V307.434H166.521V318ZM164.568 304.631C164.568 304.338 164.656 304.09 164.832 303.889C165.014 303.687 165.281 303.586 165.633 303.586C165.984 303.586 166.251 303.687 166.434 303.889C166.616 304.09 166.707 304.338 166.707 304.631C166.707 304.924 166.616 305.168 166.434 305.363C166.251 305.559 165.984 305.656 165.633 305.656C165.281 305.656 165.014 305.559 164.832 305.363C164.656 305.168 164.568 304.924 164.568 304.631ZM175.574 315.197C175.574 314.709 175.389 314.331 175.018 314.064C174.653 313.791 174.012 313.557 173.094 313.361C172.182 313.166 171.456 312.932 170.916 312.658C170.382 312.385 169.985 312.059 169.725 311.682C169.471 311.304 169.344 310.855 169.344 310.334C169.344 309.468 169.708 308.736 170.438 308.137C171.173 307.538 172.111 307.238 173.25 307.238C174.448 307.238 175.418 307.548 176.16 308.166C176.909 308.785 177.283 309.576 177.283 310.539H175.467C175.467 310.044 175.255 309.618 174.832 309.26C174.415 308.902 173.888 308.723 173.25 308.723C172.592 308.723 172.078 308.866 171.707 309.152C171.336 309.439 171.15 309.813 171.15 310.275C171.15 310.712 171.323 311.04 171.668 311.262C172.013 311.483 172.635 311.695 173.533 311.896C174.438 312.098 175.171 312.339 175.73 312.619C176.29 312.899 176.704 313.238 176.971 313.635C177.244 314.025 177.381 314.504 177.381 315.07C177.381 316.014 177.003 316.773 176.248 317.346C175.493 317.912 174.513 318.195 173.309 318.195C172.462 318.195 171.714 318.046 171.062 317.746C170.411 317.447 169.9 317.03 169.529 316.496C169.165 315.956 168.982 315.373 168.982 314.748H170.789C170.822 315.354 171.062 315.835 171.512 316.193C171.967 316.545 172.566 316.721 173.309 316.721C173.992 316.721 174.539 316.584 174.949 316.311C175.366 316.031 175.574 315.66 175.574 315.197ZM183.973 316.721C184.617 316.721 185.18 316.525 185.662 316.135C186.144 315.744 186.411 315.256 186.463 314.67H188.172C188.139 315.275 187.931 315.852 187.547 316.398C187.163 316.945 186.648 317.382 186.004 317.707C185.366 318.033 184.689 318.195 183.973 318.195C182.534 318.195 181.388 317.717 180.535 316.76C179.689 315.796 179.266 314.481 179.266 312.814V312.512C179.266 311.483 179.454 310.568 179.832 309.768C180.21 308.967 180.75 308.345 181.453 307.902C182.163 307.46 182.999 307.238 183.963 307.238C185.148 307.238 186.131 307.593 186.912 308.303C187.7 309.012 188.12 309.934 188.172 311.066H186.463C186.411 310.383 186.15 309.823 185.682 309.387C185.219 308.944 184.646 308.723 183.963 308.723C183.045 308.723 182.332 309.055 181.824 309.719C181.323 310.376 181.072 311.33 181.072 312.58V312.922C181.072 314.139 181.323 315.077 181.824 315.734C182.326 316.392 183.042 316.721 183.973 316.721ZM192.166 318H190.359V307.434H192.166V318ZM190.213 304.631C190.213 304.338 190.301 304.09 190.477 303.889C190.659 303.687 190.926 303.586 191.277 303.586C191.629 303.586 191.896 303.687 192.078 303.889C192.26 304.09 192.352 304.338 192.352 304.631C192.352 304.924 192.26 305.168 192.078 305.363C191.896 305.559 191.629 305.656 191.277 305.656C190.926 305.656 190.659 305.559 190.477 305.363C190.301 305.168 190.213 304.924 190.213 304.631ZM196.775 307.434L196.834 308.762C197.641 307.746 198.696 307.238 199.998 307.238C202.231 307.238 203.357 308.498 203.377 311.018V318H201.57V311.008C201.564 310.246 201.388 309.683 201.043 309.318C200.704 308.954 200.174 308.771 199.451 308.771C198.865 308.771 198.351 308.928 197.908 309.24C197.465 309.553 197.12 309.963 196.873 310.471V318H195.066V307.434H196.775ZM205.672 312.629C205.672 310.982 206.053 309.673 206.814 308.703C207.576 307.727 208.585 307.238 209.842 307.238C211.131 307.238 212.137 307.694 212.859 308.605L212.947 307.434H214.598V317.746C214.598 319.113 214.191 320.191 213.377 320.979C212.57 321.766 211.482 322.16 210.115 322.16C209.354 322.16 208.608 321.997 207.879 321.672C207.15 321.346 206.593 320.9 206.209 320.334L207.146 319.25C207.921 320.207 208.868 320.686 209.988 320.686C210.867 320.686 211.551 320.438 212.039 319.943C212.534 319.449 212.781 318.752 212.781 317.854V316.945C212.059 317.779 211.072 318.195 209.822 318.195C208.585 318.195 207.583 317.697 206.814 316.701C206.053 315.705 205.672 314.348 205.672 312.629ZM207.488 312.834C207.488 314.025 207.732 314.963 208.221 315.646C208.709 316.324 209.393 316.662 210.271 316.662C211.411 316.662 212.247 316.145 212.781 315.109V310.285C212.228 309.276 211.398 308.771 210.291 308.771C209.412 308.771 208.725 309.113 208.23 309.797C207.736 310.48 207.488 311.493 207.488 312.834ZM226.678 318.195C225.245 318.195 224.08 317.727 223.182 316.789C222.283 315.845 221.834 314.585 221.834 313.01V312.678C221.834 311.63 222.033 310.695 222.43 309.875C222.833 309.048 223.393 308.404 224.109 307.941C224.832 307.473 225.613 307.238 226.453 307.238C227.827 307.238 228.895 307.691 229.656 308.596C230.418 309.501 230.799 310.796 230.799 312.482V313.234H223.641C223.667 314.276 223.969 315.119 224.549 315.764C225.135 316.402 225.877 316.721 226.775 316.721C227.413 316.721 227.954 316.59 228.396 316.33C228.839 316.07 229.227 315.725 229.559 315.295L230.662 316.154C229.777 317.515 228.449 318.195 226.678 318.195ZM226.453 308.723C225.724 308.723 225.112 308.99 224.617 309.523C224.122 310.051 223.816 310.793 223.699 311.75H228.992V311.613C228.94 310.695 228.693 309.986 228.25 309.484C227.807 308.977 227.208 308.723 226.453 308.723ZM234.861 318H233.055V303H234.861V318ZM239.725 318H237.918V307.434H239.725V318ZM237.771 304.631C237.771 304.338 237.859 304.09 238.035 303.889C238.217 303.687 238.484 303.586 238.836 303.586C239.188 303.586 239.454 303.687 239.637 303.889C239.819 304.09 239.91 304.338 239.91 304.631C239.91 304.924 239.819 305.168 239.637 305.363C239.454 305.559 239.188 305.656 238.836 305.656C238.484 305.656 238.217 305.559 238.035 305.363C237.859 305.168 237.771 304.924 237.771 304.631ZM245.076 304.875V307.434H247.049V308.83H245.076V315.383C245.076 315.806 245.164 316.125 245.34 316.34C245.516 316.548 245.815 316.652 246.238 316.652C246.447 316.652 246.733 316.613 247.098 316.535V318C246.622 318.13 246.16 318.195 245.711 318.195C244.904 318.195 244.295 317.951 243.885 317.463C243.475 316.975 243.27 316.281 243.27 315.383V308.83H241.346V307.434H243.27V304.875H245.076ZM249.207 317.053C249.207 316.74 249.298 316.48 249.48 316.271C249.669 316.063 249.949 315.959 250.32 315.959C250.691 315.959 250.971 316.063 251.16 316.271C251.355 316.48 251.453 316.74 251.453 317.053C251.453 317.352 251.355 317.603 251.16 317.805C250.971 318.007 250.691 318.107 250.32 318.107C249.949 318.107 249.669 318.007 249.48 317.805C249.298 317.603 249.207 317.352 249.207 317.053ZM264.393 315.51L268.455 303.781H270.506L265.232 318H263.572L258.309 303.781H260.35L264.393 315.51ZM274.1 318H272.293V307.434H274.1V318ZM272.146 304.631C272.146 304.338 272.234 304.09 272.41 303.889C272.592 303.687 272.859 303.586 273.211 303.586C273.562 303.586 273.829 303.687 274.012 303.889C274.194 304.09 274.285 304.338 274.285 304.631C274.285 304.924 274.194 305.168 274.012 305.363C273.829 305.559 273.562 305.656 273.211 305.656C272.859 305.656 272.592 305.559 272.41 305.363C272.234 305.168 272.146 304.924 272.146 304.631ZM280.486 315.549L283.104 307.434H284.949L281.16 318H279.783L275.955 307.434H277.801L280.486 315.549ZM290.936 318.195C289.503 318.195 288.338 317.727 287.439 316.789C286.541 315.845 286.092 314.585 286.092 313.01V312.678C286.092 311.63 286.29 310.695 286.688 309.875C287.091 309.048 287.651 308.404 288.367 307.941C289.09 307.473 289.871 307.238 290.711 307.238C292.085 307.238 293.152 307.691 293.914 308.596C294.676 309.501 295.057 310.796 295.057 312.482V313.234H287.898C287.924 314.276 288.227 315.119 288.807 315.764C289.393 316.402 290.135 316.721 291.033 316.721C291.671 316.721 292.212 316.59 292.654 316.33C293.097 316.07 293.484 315.725 293.816 315.295L294.92 316.154C294.035 317.515 292.706 318.195 290.936 318.195ZM290.711 308.723C289.982 308.723 289.37 308.99 288.875 309.523C288.38 310.051 288.074 310.793 287.957 311.75H293.25V311.613C293.198 310.695 292.951 309.986 292.508 309.484C292.065 308.977 291.466 308.723 290.711 308.723ZM302.264 309.055C301.99 309.009 301.694 308.986 301.375 308.986C300.19 308.986 299.386 309.491 298.963 310.5V318H297.156V307.434H298.914L298.943 308.654C299.536 307.71 300.376 307.238 301.463 307.238C301.814 307.238 302.081 307.284 302.264 307.375V309.055ZM309.041 309.055C308.768 309.009 308.471 308.986 308.152 308.986C306.967 308.986 306.163 309.491 305.74 310.5V318H303.934V307.434H305.691L305.721 308.654C306.313 307.71 307.153 307.238 308.24 307.238C308.592 307.238 308.859 307.284 309.041 307.375V309.055ZM316.844 318C316.74 317.792 316.655 317.421 316.59 316.887C315.75 317.759 314.747 318.195 313.582 318.195C312.54 318.195 311.684 317.902 311.014 317.316C310.35 316.724 310.018 315.975 310.018 315.07C310.018 313.97 310.434 313.117 311.268 312.512C312.107 311.9 313.286 311.594 314.803 311.594H316.561V310.764C316.561 310.132 316.372 309.631 315.994 309.26C315.617 308.882 315.06 308.693 314.324 308.693C313.68 308.693 313.139 308.856 312.703 309.182C312.267 309.507 312.049 309.901 312.049 310.363H310.232C310.232 309.836 310.418 309.328 310.789 308.84C311.167 308.345 311.674 307.954 312.312 307.668C312.957 307.382 313.663 307.238 314.432 307.238C315.649 307.238 316.603 307.544 317.293 308.156C317.983 308.762 318.341 309.598 318.367 310.666V315.529C318.367 316.499 318.491 317.271 318.738 317.844V318H316.844ZM313.846 316.623C314.412 316.623 314.949 316.477 315.457 316.184C315.965 315.891 316.333 315.51 316.561 315.041V312.873H315.145C312.931 312.873 311.824 313.521 311.824 314.816C311.824 315.383 312.013 315.826 312.391 316.145C312.768 316.464 313.253 316.623 313.846 316.623ZM73.1523 345.197C73.1523 344.709 72.9668 344.331 72.5957 344.064C72.2311 343.791 71.5898 343.557 70.6719 343.361C69.7604 343.166 69.0345 342.932 68.4941 342.658C67.9603 342.385 67.5632 342.059 67.3027 341.682C67.0488 341.304 66.9219 340.855 66.9219 340.334C66.9219 339.468 67.2865 338.736 68.0156 338.137C68.7513 337.538 69.6888 337.238 70.8281 337.238C72.026 337.238 72.9961 337.548 73.7383 338.166C74.487 338.785 74.8613 339.576 74.8613 340.539H73.0449C73.0449 340.044 72.8333 339.618 72.4102 339.26C71.9935 338.902 71.4661 338.723 70.8281 338.723C70.1706 338.723 69.6562 338.866 69.2852 339.152C68.9141 339.439 68.7285 339.813 68.7285 340.275C68.7285 340.712 68.901 341.04 69.2461 341.262C69.5911 341.483 70.2129 341.695 71.1113 341.896C72.0163 342.098 72.7487 342.339 73.3086 342.619C73.8685 342.899 74.2819 343.238 74.5488 343.635C74.8223 344.025 74.959 344.504 74.959 345.07C74.959 346.014 74.5814 346.773 73.8262 347.346C73.071 347.912 72.0911 348.195 70.8867 348.195C70.0404 348.195 69.2917 348.046 68.6406 347.746C67.9896 347.447 67.4785 347.03 67.1074 346.496C66.7428 345.956 66.5605 345.373 66.5605 344.748H68.3672C68.3997 345.354 68.6406 345.835 69.0898 346.193C69.5456 346.545 70.1445 346.721 70.8867 346.721C71.5703 346.721 72.1172 346.584 72.5273 346.311C72.944 346.031 73.1523 345.66 73.1523 345.197ZM83.8359 346.955C83.1328 347.782 82.1009 348.195 80.7402 348.195C79.6139 348.195 78.7546 347.87 78.1621 347.219C77.5762 346.561 77.2799 345.591 77.2734 344.309V337.434H79.0801V344.26C79.0801 345.861 79.7311 346.662 81.0332 346.662C82.4134 346.662 83.3314 346.148 83.7871 345.119V337.434H85.5938V348H83.875L83.8359 346.955ZM94.5 345.197C94.5 344.709 94.3145 344.331 93.9434 344.064C93.5788 343.791 92.9375 343.557 92.0195 343.361C91.1081 343.166 90.3822 342.932 89.8418 342.658C89.3079 342.385 88.9108 342.059 88.6504 341.682C88.3965 341.304 88.2695 340.855 88.2695 340.334C88.2695 339.468 88.6341 338.736 89.3633 338.137C90.099 337.538 91.0365 337.238 92.1758 337.238C93.3737 337.238 94.3438 337.548 95.0859 338.166C95.8346 338.785 96.209 339.576 96.209 340.539H94.3926C94.3926 340.044 94.181 339.618 93.7578 339.26C93.3411 338.902 92.8138 338.723 92.1758 338.723C91.5182 338.723 91.0039 338.866 90.6328 339.152C90.2617 339.439 90.0762 339.813 90.0762 340.275C90.0762 340.712 90.2487 341.04 90.5938 341.262C90.9388 341.483 91.5605 341.695 92.459 341.896C93.3639 342.098 94.0964 342.339 94.6562 342.619C95.2161 342.899 95.6296 343.238 95.8965 343.635C96.1699 344.025 96.3066 344.504 96.3066 345.07C96.3066 346.014 95.929 346.773 95.1738 347.346C94.4186 347.912 93.4388 348.195 92.2344 348.195C91.388 348.195 90.6393 348.046 89.9883 347.746C89.3372 347.447 88.8262 347.03 88.4551 346.496C88.0905 345.956 87.9082 345.373 87.9082 344.748H89.7148C89.7474 345.354 89.9883 345.835 90.4375 346.193C90.8932 346.545 91.4922 346.721 92.2344 346.721C92.918 346.721 93.4648 346.584 93.875 346.311C94.2917 346.031 94.5 345.66 94.5 345.197ZM102.898 346.721C103.543 346.721 104.106 346.525 104.588 346.135C105.07 345.744 105.337 345.256 105.389 344.67H107.098C107.065 345.275 106.857 345.852 106.473 346.398C106.089 346.945 105.574 347.382 104.93 347.707C104.292 348.033 103.615 348.195 102.898 348.195C101.46 348.195 100.314 347.717 99.4609 346.76C98.6146 345.796 98.1914 344.481 98.1914 342.814V342.512C98.1914 341.483 98.3802 340.568 98.7578 339.768C99.1354 338.967 99.6758 338.345 100.379 337.902C101.089 337.46 101.925 337.238 102.889 337.238C104.074 337.238 105.057 337.593 105.838 338.303C106.626 339.012 107.046 339.934 107.098 341.066H105.389C105.337 340.383 105.076 339.823 104.607 339.387C104.145 338.944 103.572 338.723 102.889 338.723C101.971 338.723 101.258 339.055 100.75 339.719C100.249 340.376 99.998 341.33 99.998 342.58V342.922C99.998 344.139 100.249 345.077 100.75 345.734C101.251 346.392 101.967 346.721 102.898 346.721ZM111.092 348H109.285V337.434H111.092V348ZM109.139 334.631C109.139 334.338 109.227 334.09 109.402 333.889C109.585 333.687 109.852 333.586 110.203 333.586C110.555 333.586 110.822 333.687 111.004 333.889C111.186 334.09 111.277 334.338 111.277 334.631C111.277 334.924 111.186 335.168 111.004 335.363C110.822 335.559 110.555 335.656 110.203 335.656C109.852 335.656 109.585 335.559 109.402 335.363C109.227 335.168 109.139 334.924 109.139 334.631ZM122.918 342.834C122.918 344.442 122.55 345.738 121.814 346.721C121.079 347.704 120.083 348.195 118.826 348.195C117.544 348.195 116.535 347.788 115.799 346.975V352.062H113.992V337.434H115.643L115.73 338.605C116.466 337.694 117.488 337.238 118.797 337.238C120.066 337.238 121.069 337.717 121.805 338.674C122.547 339.631 122.918 340.962 122.918 342.668V342.834ZM121.111 342.629C121.111 341.438 120.857 340.497 120.35 339.807C119.842 339.117 119.145 338.771 118.26 338.771C117.166 338.771 116.346 339.257 115.799 340.227V345.275C116.339 346.239 117.166 346.721 118.279 346.721C119.145 346.721 119.832 346.379 120.34 345.695C120.854 345.005 121.111 343.983 121.111 342.629ZM127.186 348H125.379V337.434H127.186V348ZM125.232 334.631C125.232 334.338 125.32 334.09 125.496 333.889C125.678 333.687 125.945 333.586 126.297 333.586C126.648 333.586 126.915 333.687 127.098 333.889C127.28 334.09 127.371 334.338 127.371 334.631C127.371 334.924 127.28 335.168 127.098 335.363C126.915 335.559 126.648 335.656 126.297 335.656C125.945 335.656 125.678 335.559 125.496 335.363C125.32 335.168 125.232 334.924 125.232 334.631ZM132.537 334.875V337.434H134.51V338.83H132.537V345.383C132.537 345.806 132.625 346.125 132.801 346.34C132.977 346.548 133.276 346.652 133.699 346.652C133.908 346.652 134.194 346.613 134.559 346.535V348C134.083 348.13 133.621 348.195 133.172 348.195C132.365 348.195 131.756 347.951 131.346 347.463C130.936 346.975 130.73 346.281 130.73 345.383V338.83H128.807V337.434H130.73V334.875H132.537ZM148.113 348C148.009 347.792 147.924 347.421 147.859 346.887C147.02 347.759 146.017 348.195 144.852 348.195C143.81 348.195 142.954 347.902 142.283 347.316C141.619 346.724 141.287 345.975 141.287 345.07C141.287 343.97 141.704 343.117 142.537 342.512C143.377 341.9 144.555 341.594 146.072 341.594H147.83V340.764C147.83 340.132 147.641 339.631 147.264 339.26C146.886 338.882 146.329 338.693 145.594 338.693C144.949 338.693 144.409 338.856 143.973 339.182C143.536 339.507 143.318 339.901 143.318 340.363H141.502C141.502 339.836 141.688 339.328 142.059 338.84C142.436 338.345 142.944 337.954 143.582 337.668C144.227 337.382 144.933 337.238 145.701 337.238C146.919 337.238 147.872 337.544 148.562 338.156C149.253 338.762 149.611 339.598 149.637 340.666V345.529C149.637 346.499 149.76 347.271 150.008 347.844V348H148.113ZM145.115 346.623C145.682 346.623 146.219 346.477 146.727 346.184C147.234 345.891 147.602 345.51 147.83 345.041V342.873H146.414C144.201 342.873 143.094 343.521 143.094 344.816C143.094 345.383 143.283 345.826 143.66 346.145C144.038 346.464 144.523 346.623 145.115 346.623ZM152.029 342.629C152.029 341.008 152.413 339.706 153.182 338.723C153.95 337.733 154.956 337.238 156.199 337.238C157.436 337.238 158.416 337.661 159.139 338.508V333H160.945V348H159.285L159.197 346.867C158.475 347.753 157.469 348.195 156.18 348.195C154.956 348.195 153.956 347.694 153.182 346.691C152.413 345.689 152.029 344.38 152.029 342.766V342.629ZM153.836 342.834C153.836 344.032 154.083 344.969 154.578 345.646C155.073 346.324 155.757 346.662 156.629 346.662C157.775 346.662 158.611 346.148 159.139 345.119V340.266C158.598 339.27 157.768 338.771 156.648 338.771C155.763 338.771 155.073 339.113 154.578 339.797C154.083 340.48 153.836 341.493 153.836 342.834ZM165.721 348H163.914V337.434H165.721V348ZM163.768 334.631C163.768 334.338 163.855 334.09 164.031 333.889C164.214 333.687 164.48 333.586 164.832 333.586C165.184 333.586 165.451 333.687 165.633 333.889C165.815 334.09 165.906 334.338 165.906 334.631C165.906 334.924 165.815 335.168 165.633 335.363C165.451 335.559 165.184 335.656 164.832 335.656C164.48 335.656 164.214 335.559 164.031 335.363C163.855 335.168 163.768 334.924 163.768 334.631ZM177.547 342.834C177.547 344.442 177.179 345.738 176.443 346.721C175.708 347.704 174.712 348.195 173.455 348.195C172.173 348.195 171.163 347.788 170.428 346.975V352.062H168.621V337.434H170.271L170.359 338.605C171.095 337.694 172.117 337.238 173.426 337.238C174.695 337.238 175.698 337.717 176.434 338.674C177.176 339.631 177.547 340.962 177.547 342.668V342.834ZM175.74 342.629C175.74 341.438 175.486 340.497 174.979 339.807C174.471 339.117 173.774 338.771 172.889 338.771C171.795 338.771 170.975 339.257 170.428 340.227V345.275C170.968 346.239 171.795 346.721 172.908 346.721C173.774 346.721 174.461 346.379 174.969 345.695C175.483 345.005 175.74 343.983 175.74 342.629ZM181.814 348H180.008V337.434H181.814V348ZM179.861 334.631C179.861 334.338 179.949 334.09 180.125 333.889C180.307 333.687 180.574 333.586 180.926 333.586C181.277 333.586 181.544 333.687 181.727 333.889C181.909 334.09 182 334.338 182 334.631C182 334.924 181.909 335.168 181.727 335.363C181.544 335.559 181.277 335.656 180.926 335.656C180.574 335.656 180.307 335.559 180.125 335.363C179.949 335.168 179.861 334.924 179.861 334.631ZM190.867 345.197C190.867 344.709 190.682 344.331 190.311 344.064C189.946 343.791 189.305 343.557 188.387 343.361C187.475 343.166 186.749 342.932 186.209 342.658C185.675 342.385 185.278 342.059 185.018 341.682C184.764 341.304 184.637 340.855 184.637 340.334C184.637 339.468 185.001 338.736 185.73 338.137C186.466 337.538 187.404 337.238 188.543 337.238C189.741 337.238 190.711 337.548 191.453 338.166C192.202 338.785 192.576 339.576 192.576 340.539H190.76C190.76 340.044 190.548 339.618 190.125 339.26C189.708 338.902 189.181 338.723 188.543 338.723C187.885 338.723 187.371 338.866 187 339.152C186.629 339.439 186.443 339.813 186.443 340.275C186.443 340.712 186.616 341.04 186.961 341.262C187.306 341.483 187.928 341.695 188.826 341.896C189.731 342.098 190.464 342.339 191.023 342.619C191.583 342.899 191.997 343.238 192.264 343.635C192.537 344.025 192.674 344.504 192.674 345.07C192.674 346.014 192.296 346.773 191.541 347.346C190.786 347.912 189.806 348.195 188.602 348.195C187.755 348.195 187.007 348.046 186.355 347.746C185.704 347.447 185.193 347.03 184.822 346.496C184.458 345.956 184.275 345.373 184.275 344.748H186.082C186.115 345.354 186.355 345.835 186.805 346.193C187.26 346.545 187.859 346.721 188.602 346.721C189.285 346.721 189.832 346.584 190.242 346.311C190.659 346.031 190.867 345.66 190.867 345.197ZM199.266 346.721C199.91 346.721 200.473 346.525 200.955 346.135C201.437 345.744 201.704 345.256 201.756 344.67H203.465C203.432 345.275 203.224 345.852 202.84 346.398C202.456 346.945 201.941 347.382 201.297 347.707C200.659 348.033 199.982 348.195 199.266 348.195C197.827 348.195 196.681 347.717 195.828 346.76C194.982 345.796 194.559 344.481 194.559 342.814V342.512C194.559 341.483 194.747 340.568 195.125 339.768C195.503 338.967 196.043 338.345 196.746 337.902C197.456 337.46 198.292 337.238 199.256 337.238C200.441 337.238 201.424 337.593 202.205 338.303C202.993 339.012 203.413 339.934 203.465 341.066H201.756C201.704 340.383 201.443 339.823 200.975 339.387C200.512 338.944 199.939 338.723 199.256 338.723C198.338 338.723 197.625 339.055 197.117 339.719C196.616 340.376 196.365 341.33 196.365 342.58V342.922C196.365 344.139 196.616 345.077 197.117 345.734C197.618 346.392 198.335 346.721 199.266 346.721ZM207.459 348H205.652V337.434H207.459V348ZM205.506 334.631C205.506 334.338 205.594 334.09 205.77 333.889C205.952 333.687 206.219 333.586 206.57 333.586C206.922 333.586 207.189 333.687 207.371 333.889C207.553 334.09 207.645 334.338 207.645 334.631C207.645 334.924 207.553 335.168 207.371 335.363C207.189 335.559 206.922 335.656 206.57 335.656C206.219 335.656 205.952 335.559 205.77 335.363C205.594 335.168 205.506 334.924 205.506 334.631ZM212.068 337.434L212.127 338.762C212.934 337.746 213.989 337.238 215.291 337.238C217.524 337.238 218.65 338.498 218.67 341.018V348H216.863V341.008C216.857 340.246 216.681 339.683 216.336 339.318C215.997 338.954 215.467 338.771 214.744 338.771C214.158 338.771 213.644 338.928 213.201 339.24C212.758 339.553 212.413 339.963 212.166 340.471V348H210.359V337.434H212.068ZM220.965 342.629C220.965 340.982 221.346 339.673 222.107 338.703C222.869 337.727 223.878 337.238 225.135 337.238C226.424 337.238 227.43 337.694 228.152 338.605L228.24 337.434H229.891V347.746C229.891 349.113 229.484 350.191 228.67 350.979C227.863 351.766 226.775 352.16 225.408 352.16C224.646 352.16 223.901 351.997 223.172 351.672C222.443 351.346 221.886 350.9 221.502 350.334L222.439 349.25C223.214 350.207 224.161 350.686 225.281 350.686C226.16 350.686 226.844 350.438 227.332 349.943C227.827 349.449 228.074 348.752 228.074 347.854V346.945C227.352 347.779 226.365 348.195 225.115 348.195C223.878 348.195 222.876 347.697 222.107 346.701C221.346 345.705 220.965 344.348 220.965 342.629ZM222.781 342.834C222.781 344.025 223.025 344.963 223.514 345.646C224.002 346.324 224.686 346.662 225.564 346.662C226.704 346.662 227.54 346.145 228.074 345.109V340.285C227.521 339.276 226.691 338.771 225.584 338.771C224.705 338.771 224.018 339.113 223.523 339.797C223.029 340.48 222.781 341.493 222.781 342.834ZM241.971 348.195C240.538 348.195 239.373 347.727 238.475 346.789C237.576 345.845 237.127 344.585 237.127 343.01V342.678C237.127 341.63 237.326 340.695 237.723 339.875C238.126 339.048 238.686 338.404 239.402 337.941C240.125 337.473 240.906 337.238 241.746 337.238C243.12 337.238 244.188 337.691 244.949 338.596C245.711 339.501 246.092 340.796 246.092 342.482V343.234H238.934C238.96 344.276 239.262 345.119 239.842 345.764C240.428 346.402 241.17 346.721 242.068 346.721C242.706 346.721 243.247 346.59 243.689 346.33C244.132 346.07 244.52 345.725 244.852 345.295L245.955 346.154C245.07 347.515 243.742 348.195 241.971 348.195ZM241.746 338.723C241.017 338.723 240.405 338.99 239.91 339.523C239.415 340.051 239.109 340.793 238.992 341.75H244.285V341.613C244.233 340.695 243.986 339.986 243.543 339.484C243.1 338.977 242.501 338.723 241.746 338.723ZM250.154 348H248.348V333H250.154V348ZM255.018 348H253.211V337.434H255.018V348ZM253.064 334.631C253.064 334.338 253.152 334.09 253.328 333.889C253.51 333.687 253.777 333.586 254.129 333.586C254.48 333.586 254.747 333.687 254.93 333.889C255.112 334.09 255.203 334.338 255.203 334.631C255.203 334.924 255.112 335.168 254.93 335.363C254.747 335.559 254.48 335.656 254.129 335.656C253.777 335.656 253.51 335.559 253.328 335.363C253.152 335.168 253.064 334.924 253.064 334.631ZM260.369 334.875V337.434H262.342V338.83H260.369V345.383C260.369 345.806 260.457 346.125 260.633 346.34C260.809 346.548 261.108 346.652 261.531 346.652C261.74 346.652 262.026 346.613 262.391 346.535V348C261.915 348.13 261.453 348.195 261.004 348.195C260.197 348.195 259.588 347.951 259.178 347.463C258.768 346.975 258.562 346.281 258.562 345.383V338.83H256.639V337.434H258.562V334.875H260.369ZM264.5 347.053C264.5 346.74 264.591 346.48 264.773 346.271C264.962 346.063 265.242 345.959 265.613 345.959C265.984 345.959 266.264 346.063 266.453 346.271C266.648 346.48 266.746 346.74 266.746 347.053C266.746 347.352 266.648 347.603 266.453 347.805C266.264 348.007 265.984 348.107 265.613 348.107C265.242 348.107 264.962 348.007 264.773 347.805C264.591 347.603 264.5 347.352 264.5 347.053Z" fill="black"/>
<path d="M86.4941 229.564H78.4824V238H75.0234V218.094H87.6699V220.883H78.4824V226.803H86.4941V229.564ZM93.6309 238H90.3086V223.207H93.6309V238ZM90.1035 219.365C90.1035 218.855 90.263 218.431 90.582 218.094C90.9102 217.757 91.375 217.588 91.9766 217.588C92.5781 217.588 93.043 217.757 93.3711 218.094C93.6992 218.431 93.8633 218.855 93.8633 219.365C93.8633 219.867 93.6992 220.286 93.3711 220.623C93.043 220.951 92.5781 221.115 91.9766 221.115C91.375 221.115 90.9102 220.951 90.582 220.623C90.263 220.286 90.1035 219.867 90.1035 219.365ZM100.344 223.207L100.439 224.916C101.533 223.594 102.969 222.934 104.746 222.934C107.827 222.934 109.395 224.697 109.449 228.225V238H106.127V228.416C106.127 227.477 105.922 226.785 105.512 226.338C105.111 225.882 104.45 225.654 103.529 225.654C102.189 225.654 101.191 226.26 100.535 227.473V238H97.2129V223.207H100.344ZM121.686 238C121.54 237.717 121.412 237.257 121.303 236.619C120.245 237.722 118.951 238.273 117.42 238.273C115.934 238.273 114.722 237.85 113.783 237.002C112.844 236.154 112.375 235.106 112.375 233.857C112.375 232.281 112.958 231.073 114.125 230.234C115.301 229.387 116.978 228.963 119.156 228.963H121.193V227.992C121.193 227.227 120.979 226.616 120.551 226.16C120.122 225.695 119.471 225.463 118.596 225.463C117.839 225.463 117.219 225.654 116.736 226.037C116.253 226.411 116.012 226.889 116.012 227.473H112.689C112.689 226.661 112.958 225.905 113.496 225.203C114.034 224.492 114.763 223.936 115.684 223.535C116.613 223.134 117.648 222.934 118.787 222.934C120.519 222.934 121.9 223.371 122.93 224.246C123.96 225.112 124.488 226.333 124.516 227.91V234.582C124.516 235.913 124.702 236.975 125.076 237.768V238H121.686ZM118.035 235.607C118.691 235.607 119.307 235.448 119.881 235.129C120.464 234.81 120.902 234.382 121.193 233.844V231.055H119.402C118.172 231.055 117.247 231.269 116.627 231.697C116.007 232.126 115.697 232.732 115.697 233.516C115.697 234.154 115.907 234.664 116.326 235.047C116.755 235.421 117.324 235.607 118.035 235.607ZM131.529 238H128.207V217H131.529V238ZM142.453 238V218.094H148.332C150.091 218.094 151.65 218.486 153.008 219.27C154.375 220.053 155.432 221.165 156.18 222.605C156.927 224.046 157.301 225.695 157.301 227.555V228.553C157.301 230.439 156.923 232.098 156.166 233.529C155.419 234.96 154.348 236.063 152.953 236.838C151.568 237.613 149.977 238 148.182 238H142.453ZM145.912 220.883V235.238H148.168C149.982 235.238 151.372 234.673 152.338 233.543C153.313 232.404 153.81 230.772 153.828 228.648V227.541C153.828 225.381 153.359 223.731 152.42 222.592C151.481 221.452 150.118 220.883 148.332 220.883H145.912ZM166.939 238.273C164.834 238.273 163.125 237.613 161.812 236.291C160.509 234.96 159.857 233.192 159.857 230.986V230.576C159.857 229.1 160.14 227.783 160.705 226.625C161.279 225.458 162.081 224.551 163.111 223.904C164.141 223.257 165.29 222.934 166.557 222.934C168.571 222.934 170.125 223.576 171.219 224.861C172.322 226.146 172.873 227.965 172.873 230.316V231.656H163.207C163.307 232.878 163.713 233.844 164.424 234.555C165.144 235.266 166.046 235.621 167.131 235.621C168.653 235.621 169.893 235.006 170.85 233.775L172.641 235.484C172.048 236.368 171.255 237.057 170.262 237.549C169.277 238.032 168.17 238.273 166.939 238.273ZM166.543 225.6C165.632 225.6 164.893 225.919 164.328 226.557C163.772 227.195 163.417 228.083 163.262 229.223H169.592V228.977C169.519 227.865 169.223 227.026 168.703 226.461C168.184 225.887 167.464 225.6 166.543 225.6ZM178.998 238H175.676V217H178.998V238ZM186.162 238H182.84V223.207H186.162V238ZM182.635 219.365C182.635 218.855 182.794 218.431 183.113 218.094C183.441 217.757 183.906 217.588 184.508 217.588C185.109 217.588 185.574 217.757 185.902 218.094C186.23 218.431 186.395 218.855 186.395 219.365C186.395 219.867 186.23 220.286 185.902 220.623C185.574 220.951 185.109 221.115 184.508 221.115C183.906 221.115 183.441 220.951 183.113 220.623C182.794 220.286 182.635 219.867 182.635 219.365ZM195.008 233.789L198.139 223.207H201.57L196.443 238H193.559L188.391 223.207H191.836L195.008 233.789ZM209.979 238.273C207.873 238.273 206.164 237.613 204.852 236.291C203.548 234.96 202.896 233.192 202.896 230.986V230.576C202.896 229.1 203.179 227.783 203.744 226.625C204.318 225.458 205.12 224.551 206.15 223.904C207.18 223.257 208.329 222.934 209.596 222.934C211.61 222.934 213.164 223.576 214.258 224.861C215.361 226.146 215.912 227.965 215.912 230.316V231.656H206.246C206.346 232.878 206.752 233.844 207.463 234.555C208.183 235.266 209.085 235.621 210.17 235.621C211.692 235.621 212.932 235.006 213.889 233.775L215.68 235.484C215.087 236.368 214.294 237.057 213.301 237.549C212.316 238.032 211.209 238.273 209.979 238.273ZM209.582 225.6C208.671 225.6 207.932 225.919 207.367 226.557C206.811 227.195 206.456 228.083 206.301 229.223H212.631V228.977C212.558 227.865 212.262 227.026 211.742 226.461C211.223 225.887 210.503 225.6 209.582 225.6ZM226.248 226.242C225.811 226.169 225.359 226.133 224.895 226.133C223.372 226.133 222.347 226.716 221.818 227.883V238H218.496V223.207H221.668L221.75 224.861C222.552 223.576 223.664 222.934 225.086 222.934C225.56 222.934 225.952 222.997 226.262 223.125L226.248 226.242ZM227.451 230.494C227.451 228.215 227.98 226.388 229.037 225.012C230.094 223.626 231.512 222.934 233.289 222.934C234.857 222.934 236.124 223.48 237.09 224.574V217H240.412V238H237.404L237.24 236.469C236.247 237.672 234.921 238.273 233.262 238.273C231.53 238.273 230.126 237.576 229.051 236.182C227.984 234.787 227.451 232.891 227.451 230.494ZM230.773 230.781C230.773 232.285 231.061 233.461 231.635 234.309C232.218 235.147 233.043 235.566 234.109 235.566C235.467 235.566 236.461 234.96 237.09 233.748V227.432C236.479 226.247 235.495 225.654 234.137 225.654C233.061 225.654 232.232 226.083 231.648 226.939C231.065 227.787 230.773 229.068 230.773 230.781Z" fill="black"/>
<circle cx="167" cy="75" r="73" stroke="#0082F4" stroke-width="4"/>
<g clip-path="url(#clip0_1_91)">
<path d="M199.179 66.0628H165.456V45.2586C165.456 43.7325 164.215 42.4908 162.689 42.4908H153.838C152.493 41.2489 150.698 40.4883 148.728 40.4883C146.758 40.4883 144.963 41.2489 143.619 42.4908H134.768C133.242 42.4908 132 43.7325 132 45.2586V83.2117C132 84.7378 133.242 85.9795 134.768 85.9795H151.937V106.691C151.937 108.246 153.203 109.512 154.758 109.512H199.179C200.735 109.512 202 108.246 202 106.691V68.8835C202 67.3281 200.735 66.0628 199.179 66.0628ZM170.807 69.4307H183.131V90.912L177.551 88.8565C177.175 88.7182 176.762 88.7182 176.387 88.8565L170.807 90.912V69.4307H170.807ZM148.728 43.8562C150.951 43.8562 152.772 45.6043 152.891 47.7977H144.565C144.684 45.6042 146.506 43.8562 148.728 43.8562ZM135.368 45.8587H141.51C141.324 46.4756 141.217 47.1257 141.196 47.7976H137.918C136.988 47.7976 136.234 48.5515 136.234 49.4815C136.234 50.4115 136.988 51.1654 137.918 51.1654H159.539C160.469 51.1654 161.223 50.4115 161.223 49.4815C161.223 48.5515 160.469 47.7976 159.539 47.7976H156.26C156.24 47.1257 156.132 46.4756 155.947 45.8587H162.088V82.6116H135.368V45.8587ZM198.632 106.144H155.305V85.9795H162.688C164.214 85.9795 165.456 84.7379 165.456 83.2117V69.4305H167.439V93.3269C167.439 93.8775 167.708 94.3932 168.16 94.7082C168.446 94.9079 168.783 95.0108 169.123 95.0108C169.319 95.0108 169.516 94.9767 169.705 94.907L176.969 92.2313L184.232 94.907C184.749 95.0974 185.326 95.0231 185.777 94.7082C186.229 94.3932 186.498 93.8775 186.498 93.3269V69.4307H198.632V106.144H198.632Z" fill="#0082F4"/>
<path d="M154.361 62.105L146.158 70.3086L143.095 67.2453C142.437 66.5877 141.371 66.5877 140.713 67.2453C140.055 67.9029 140.055 68.9692 140.713 69.6269L144.967 73.8809C145.283 74.1968 145.711 74.3741 146.158 74.3741C146.604 74.3741 147.033 74.1968 147.349 73.8809L156.743 64.4866C157.401 63.829 157.401 62.7627 156.743 62.105C156.085 61.4474 155.019 61.4474 154.361 62.105Z" fill="#0082F4"/>
</g>
<defs>
<clipPath id="clip0_1_91">
<rect width="70" height="70" fill="white" transform="translate(132 40)"/>
</clipPath>
</defs>
</svg>
